<svg xmlns="http://www.w3.org/2000/svg" xml:space="preserve" width="800" height="800" viewBox="0 0 512 512"><path d="M440.92 67.92H71.08A71.09 71.09 0 0 0 0 139.01v233.98a71.09 71.09 0 0 0 71.08 71.09h369.84A71.09 71.09 0 0 0 512 372.99V139.01a71.09 71.09 0 0 0-71.08-71.08zm-262.75 253.8-99.54 84.92a16.71 16.71 0 1 1-21.7-25.44l99.54-84.92a16.71 16.71 0 1 1 21.7 25.44zM256 289.44c-13.31-.04-26.22-4.46-36.31-13.19v.01l-.02-.02.02.01L66.96 143.7a16.71 16.71 0 1 1 21.91-25.25l152.77 132.59c3.27 2.9 8.65 5 14.36 4.97 5.7.02 11-2.02 14.44-5.03l.07-.06 152.62-132.47a16.71 16.71 0 1 1 21.9 25.26L292.28 276.3c-10.06 8.63-22.95 13.12-36.27 13.14zm200.95 115.33a16.71 16.71 0 0 1-23.57 1.87l-99.54-84.92a16.71 16.71 0 1 1 21.7-25.44l99.54 84.92c7.03 6 7.86 16.55 1.87 23.57z" style="fill:#000"/></svg>