<svg xmlns="http://www.w3.org/2000/svg" data-name="Layer 1" viewBox="0 0 32 32"><path fill="#ea4435" d="M16.58 19.1 3.89 11.04a3 3 0 0 1 3.22-5.06l9.31 5.92 8.36-5.85a3 3 0 0 1 3.44 4.92Z"/><path fill="#00ac47" d="M27.5 26.5h-4v-18a3 3 0 0 1 3-3 3 3 0 0 1 3 3v16a2 2 0 0 1-2 2Z"/><path fill="#ffba00" d="m29.46 8.07-.02-.19c-.02-.09-.06-.17-.09-.26a2.93 2.93 0 0 0-.1-.3c-.01-.05-.04-.09-.07-.14a2.98 2.98 0 0 0-.21-.38l-.14-.16a3.03 3.03 0 0 0-.24-.29l-.22-.17a3.02 3.02 0 0 0-.24-.19l-.25-.14c-.08-.04-.17-.1-.26-.13l-.28-.09a2.13 2.13 0 0 0-.28-.07 3.05 3.05 0 0 0-.36-.04l-.22-.02a2.98 2.98 0 0 0-.43.05l-.17.01a33.21 33.21 0 0 0-.56.18l-.15.08A2.9 2.9 0 0 0 23.5 8.5v5.76l4.72-3.3a2.89 2.89 0 0 0 1.24-2.9Z"/><path fill="#4285f4" d="M5.5 5.5a3 3 0 0 1 3 3v18h-4a2 2 0 0 1-2-2v-16a3 3 0 0 1 3-3Z"/><path fill="#c52528" d="m2.54 8.07.02-.19c.02-.09.06-.17.09-.26a2.93 2.93 0 0 1 .1-.3c.01-.05.04-.09.07-.14a2.97 2.97 0 0 1 .21-.38l.14-.16a3.03 3.03 0 0 1 .24-.29l.22-.17a3 3 0 0 1 .24-.19l.25-.14a2.97 2.97 0 0 1 .26-.13l.28-.09c.09-.03.18-.06.28-.07a3.06 3.06 0 0 1 .36-.04l.22-.02a2.98 2.98 0 0 1 .43.04l.17.02a2.9 2.9 0 0 1 .28.1 2.92 2.92 0 0 1 .28.08l.15.08a2.97 2.97 0 0 1 .37.21A3 3 0 0 1 8.5 8.5v5.76l-4.72-3.3a2.89 2.89 0 0 1-1.24-2.9Z"/></svg>