<svg xmlns="http://www.w3.org/2000/svg" fill="none" viewBox="0 0 24 24" width="150" height="150"><path fill="#FFF" d="M10.405 7.748a1.5 1.5 0 01-.549 2.05l-6.062 3.5a1.5 1.5 0 01-1.5-2.599l6.062-3.5a1.5 1.5 0 012.049.55z"/><path fill="#005bc4" d="M1.745 11.252a1.5 1.5 0 012.049-.55l6.062 3.5a1.5 1.5 0 01-1.5 2.599l-6.062-3.5a1.5 1.5 0 01-.55-2.05z"/><path fill="#FFF" d="M22.255 11.252a1.5 1.5 0 00-2.049-.55l-6.062 3.5a1.5 1.5 0 001.5 2.599l6.062-3.5a1.5 1.5 0 00.55-2.05z"/><path fill="#005bc4" d="M13.595 7.748a1.5 1.5 0 00.549 2.05l6.062 3.5a1.5 1.5 0 001.5-2.599l-6.062-3.5a1.5 1.5 0 00-2.049.55z"/></svg>