<svg xmlns="http://www.w3.org/2000/svg" fill="none" viewBox="0 0 16 15"><path fill="#fff" d="M6.25 9a.75.75 0 0 1 .75.75v1.5a.75.75 0 0 1-1.5 0v-1.5A.75.75 0 0 1 6.25 9Zm4.25.75a.75.75 0 0 0-1.5 0v1.5a.75.75 0 0 0 1.5 0v-1.5Z"/><path fill="#3c7998" d="M7.86 1.77c.05.052.097.107.14.164a1.97 1.97 0 0 1 .14-.165c.681-.73 1.737-.899 2.943-.765 1.23.137 2.145.528 2.724 1.261.566.716.693 1.614.693 2.485 0 .572-.053 1.147-.254 1.655l.168.838.066.033A2.75 2.75 0 0 1 16 9.736V11c0 .24-.086.438-.156.567a2.177 2.177 0 0 1-.259.366 5.18 5.18 0 0 1-.605.58 9.985 9.985 0 0 1-.556.43c-.24.174-.485.333-.741.48-.307.177-.749.41-1.296.642C11.296 14.528 9.756 15 8 15c-1.756 0-3.296-.472-4.387-.935a12.079 12.079 0 0 1-1.296-.642 8.503 8.503 0 0 1-.74-.48 9.608 9.608 0 0 1-.557-.43 5.18 5.18 0 0 1-.605-.58 2.17 2.17 0 0 1-.259-.366A1.19 1.19 0 0 1 0 11V9.736a2.75 2.75 0 0 1 1.52-2.46l.067-.033.167-.838C1.553 5.897 1.5 5.322 1.5 4.75c0-.87.127-1.77.693-2.485.579-.733 1.494-1.124 2.724-1.26 1.206-.135 2.262.034 2.944.764ZM3.024 7.708 3 7.824v4.261l.065.038c.264.152.65.356 1.134.561.972.413 2.307.816 3.801.816 1.494 0 2.83-.403 3.8-.816a10.58 10.58 0 0 0 1.2-.599v-4.26l-.023-.116c-.49.21-1.075.29-1.727.29-1.146 0-2.06-.327-2.71-.99A3.223 3.223 0 0 1 8 6.266a3.244 3.244 0 0 1-.54.743c-.65.663-1.564.99-2.71.99-.652 0-1.237-.08-1.727-.29Zm3.741-4.916c-.193-.207-.637-.414-1.681-.298-1.02.114-1.48.404-1.713.7-.247.313-.37.79-.37 1.555 0 .792.129 1.17.308 1.37.162.181.52.38 1.442.38.854 0 1.339-.236 1.638-.541.315-.322.527-.826.618-1.552.117-.936-.038-1.396-.242-1.614Zm2.472 0c-.204.218-.359.678-.242 1.614.09.726.303 1.23.618 1.552.299.305.784.54 1.638.54.922 0 1.28-.198 1.442-.379.179-.2.308-.578.308-1.37 0-.766-.123-1.242-.37-1.555-.233-.296-.693-.586-1.713-.7-1.044-.116-1.488.091-1.681.298Z"/></svg>