<svg xmlns="http://www.w3.org/2000/svg" fill="none" viewBox="0 0 16 16"><path fill="#0A66C2" d="M12.22 12.22h-1.77V9.45c0-.66-.02-1.52-.93-1.52-.92 0-1.07.72-1.07 1.47v2.83H6.68V6.5h1.7v.78h.03c.34-.6 1-.95 1.68-.92 1.8 0 2.14 1.18 2.14 2.72v3.14zm-7.55-6.5a1.04 1.04 0 0 1-1.03-1.04c0-.56.46-1.03 1.03-1.03.57 0 1.03.47 1.03 1.03 0 .57-.46 1.04-1.03 1.04zm.89 6.5H3.78V6.5h1.78v5.73zM13.1 2H2.89a.88.88 0 0 0-.89.87v10.26a.88.88 0 0 0 .89.87H13.1a.88.88 0 0 0 .89-.87V2.86a.88.88 0 0 0-.89-.86z"/></svg>