<svg fill="currentcolor" version="1.0" viewBox="100 0 450 90" xmlns="http://www.w3.org/2000/svg">
  <path
    d="M121 44.5V65h8V24h-8v20.5zM195 25.5c0 .9 1.1 2.7 2.5 4 2.4 2.5 2.6 2.5 21 2.5 18 0 18.5.1 18.5 2.1 0 1.1-.5 2.9-1 4-1 1.8-2.3 1.9-21 1.9h-20v25h8V48h12.5l8.5 8.5 8.5 8.5h11.7l-7.8-8.3-7.7-8.2 6.2-.5c9-.7 10.1-2.4 10.1-14.6V24h-25c-21.9 0-25 .2-25 1.5zM254 44.5V65h21.5c13.5 0 22.3-.4 23.8-1.1 2.1-.9 4.7-4.6 4.7-6.4 0-.3-9.4-.5-21-.5h-21V24h-8v20.5zM140.8 36.3l4.2 4.3V65h8V48.6l3.8 3.7c2.1 2 4.2 3.7 4.7 3.7s2.6-1.7 4.7-3.7l3.8-3.7V65h8V40.6l4.2-4.3 4.2-4.3h-11.8l-6.3 6.2-6.3 6.2-6.3-6.2-6.3-6.2h-12.8l4.2 4.3zM312 45c0 13.9.8 17.1 4.7 18.9 3.2 1.5 29.4 1.5 32.6 0 3.9-1.8 4.7-5 4.7-18.9V32h-42v13zm34 1.9c0 9.6-.6 10.1-13 10.1s-13-.5-13-10.1V40h26v6.9zM362 36v4h34v6.9c0 10.1.1 10.1-18.6 10.1H362v16h8v-8h13.5c14.4 0 17.6-.8 19.4-4.7.6-1.3 1.1-8 1.1-15.3V32h-42v4zM416.4 33.2c-1.2.5-2.7 2.1-3.3 3.4-1.4 3.2-1.4 20.6 0 23.7 1.8 4 5 4.7 20.3 4.7 13 0 14.6-.2 17-2.1 1.4-1.1 2.6-2.9 2.6-4 0-1.8-.9-1.9-14.9-1.9-17.6 0-18.1-.2-18.1-8.5 0-7.3 1.4-8.5 9.6-8.5 3.5 0 6.4.3 6.4.7 0 .5-2.5 3.2-5.7 6l-5.8 5.3h21.1l3.9-4 3.9-4h-11.8l5.9-6 5.9-6-17.4.1c-9.9 0-18.4.5-19.6 1.1zM462 33.5c0 .9 1.1 2.7 2.5 4 2.2 2.3 3.2 2.5 12 2.5 5.2 0 9.5.3 9.5.7 0 .4-5.3 6.1-11.7 12.5L462.5 65h17.6c16.3 0 17.8-.2 20.3-2.1 1.4-1.1 2.6-2.9 2.6-4 0-1.8-.8-1.9-12.2-1.9h-12.3L491 44.5 503.5 32h-20.8c-18 0-20.7.2-20.7 1.5z" />
</svg>