<svg xmlns="http://www.w3.org/2000/svg" width="800" height="800" viewBox="0 0 1920 1920"><path fill-rule="evenodd" fill="#fff" d="M1920 311.86a748.11 748.11 0 0 1-226.22 66.86c81.32-52.52 143.77-135.53 173.25-234.7-76.24 48.68-160.72 84.03-250.39 103-71.72-82.55-174.27-134.05-287.44-134.05-217.75 0-394.16 189.96-394.16 424.2 0 33.32 3.61 65.62 10.16 96.68-327.3-17.73-617.9-186.47-812.16-443.18-33.77 62.57-53.3 135.53-53.3 213.23 0 147.16 91.03 276.82 196.74 353.06-64.6-2.26-157.1-21.46-157.1-53.31v5.65c0 205.32 114.4 376.65 294.55 415.84-32.98 9.5-78.38 14.8-114.41 14.8-25.41 0-55.45-2.71-79.62-7.8 50.26 168.52 193.13 291.17 365.47 294.78-134.85 113.51-306.07 181.39-490.61 181.39-31.85 0-64.04-2.04-94.76-5.88 174.5 120.17 381.18 190.54 603.67 190.54 724.97 0 1121.06-646.14 1121.06-1206.55 0-18.41-.46-36.94-1.36-55.12 77.03-59.75 143.89-134.4 196.63-219.44"/></svg>